<svg xmlns="http://www.w3.org/2000/svg" width="120" height="120" viewBox="400 0 700 756">
<g>
<path d="M 644.40 584.55 C636.91,585.98 595.57,587.29 587.50,586.35 C572.10,584.55 555.55,581.68 547.72,579.43 C534.93,575.77 522.88,572.06 520.50,571.04 C509.76,566.48 489.90,556.66 483.30,552.66 C473.94,546.98 455.00,533.95 455.00,533.20 C455.00,532.80 453.90,531.80 452.55,530.98 C450.20,529.55 434.32,514.26 426.95,506.32 C423.11,502.19 411.33,487.83 408.96,484.38 C401.22,473.13 399.00,469.78 399.00,469.28 C399.00,468.97 397.49,466.41 395.64,463.60 C385.80,448.64 374.74,423.17 368.25,400.50 C363.53,383.99 361.98,376.77 358.97,357.00 C355.82,336.30 356.20,303.43 359.90,277.50 C363.04,255.48 369.89,229.47 376.44,214.72 C377.85,211.54 379.00,208.31 379.00,207.53 C379.00,204.11 401.48,161.71 406.06,156.50 C407.03,155.40 409.70,150.80 411.99,146.29 C417.19,136.07 428.80,122.14 448.07,103.00 C466.76,84.44 469.74,81.80 471.59,82.18 C474.09,82.70 464.40,95.00 461.50,95.00 C459.75,95.00 456.22,98.57 446.91,109.75 C409.63,154.52 386.48,206.67 378.79,263.19 C376.79,277.88 377.12,323.79 379.33,338.00 C384.56,371.66 393.58,399.53 408.74,428.92 C419.29,449.38 427.20,461.46 440.67,477.67 C474.69,518.62 520.82,546.73 570.00,556.50 C588.17,560.11 615.78,561.01 633.50,558.57 C692.06,550.51 741.00,514.55 758.82,466.50 C764.36,451.57 766.52,427.81 763.64,413.50 C762.76,409.10 761.49,403.62 760.83,401.33 C759.59,397.02 760.64,394.00 763.38,394.00 C765.11,394.00 772.63,409.80 773.84,416.00 C777.38,434.10 778.16,442.90 777.07,452.21 C775.62,464.48 772.19,479.64 769.86,483.99 C768.84,485.90 768.00,488.05 768.00,488.76 C768.00,491.27 756.26,512.31 753.78,514.25 C752.90,514.94 750.94,517.91 749.43,520.86 C746.21,527.12 728.36,545.47 719.70,551.42 C716.57,553.57 714.00,555.71 714.00,556.17 C714.00,556.62 713.36,557.00 712.58,557.00 C711.79,557.00 709.09,558.58 706.57,560.50 C704.05,562.42 701.53,564.00 700.97,564.00 C700.42,564.00 698.28,565.03 696.23,566.29 C691.45,569.22 668.68,578.27 659.20,581.01 C655.18,582.17 648.52,583.76 644.40,584.55 ZM 691.50 742.00 C686.55,742.54 680.70,742.93 678.50,742.87 C676.30,742.80 679.67,742.18 686.00,741.47 C701.85,739.71 726.87,734.12 738.00,729.86 C741.03,728.70 745.30,727.09 747.50,726.28 C749.70,725.48 752.85,724.21 754.50,723.47 C756.15,722.73 760.20,720.92 763.50,719.45 C766.80,717.98 771.33,715.93 773.57,714.89 C775.80,713.85 778.09,713.00 778.66,713.00 C779.23,713.00 780.50,712.10 781.50,711.00 C782.50,709.90 783.75,709.00 784.29,709.00 C784.82,709.00 790.27,705.97 796.38,702.26 C821.05,687.32 835.47,675.58 853.26,655.95 C864.75,643.27 869.82,637.05 875.24,629.00 C877.27,625.97 879.84,622.38 880.95,621.00 C882.05,619.62 882.97,617.85 882.98,617.06 C882.99,616.27 883.86,614.70 884.90,613.56 C886.78,611.52 888.47,608.71 894.27,598.00 C895.91,594.97 897.80,591.60 898.47,590.50 C901.41,585.72 913.10,555.45 915.66,546.00 C920.89,526.66 922.36,519.90 924.23,506.50 C927.04,486.42 926.99,463.90 924.10,443.50 C922.93,435.25 921.57,427.38 921.06,426.00 C920.56,424.62 919.62,421.02 918.96,418.00 C918.31,414.98 917.21,411.59 916.52,410.49 C915.83,409.38 914.93,406.97 914.53,405.13 C913.69,401.33 911.35,395.64 906.42,385.43 C904.54,381.53 903.00,377.96 903.00,377.48 C903.00,377.00 901.88,374.90 900.50,372.80 C899.12,370.71 896.94,367.31 895.65,365.25 C894.36,363.19 891.64,358.92 889.60,355.76 C884.33,347.58 868.27,330.38 857.70,321.59 L 853.89 318.43 L 852.94 290.94 L 861.22 296.07 C871.11,302.19 875.38,305.60 887.29,316.93 C918.38,346.50 938.99,389.66 945.56,438.97 C948.22,458.99 947.06,493.55 942.97,515.50 C933.03,568.96 905.03,621.47 865.64,660.54 C818.28,707.50 760.80,734.39 691.50,742.00 ZM 690.01 375.75 C690.44,377.54 690.65,379.00 690.48,379.00 C690.11,379.00 687.64,374.91 683.04,366.69 C676.68,355.34 675.36,342.74 679.02,328.43 C681.92,317.09 687.93,307.10 698.00,296.89 C711.26,283.45 727.22,275.29 747.51,271.56 C752.46,270.65 757.33,269.66 758.34,269.36 C759.86,268.90 760.00,269.12 759.18,270.66 C758.64,271.67 758.16,272.95 758.11,273.50 C758.06,274.05 757.42,275.20 756.69,276.05 C755.96,276.91 753.43,281.10 751.07,285.38 C747.29,292.22 746.50,293.09 744.49,292.59 C743.23,292.27 740.92,292.68 739.35,293.50 C737.78,294.32 735.92,294.99 735.22,294.99 C732.89,295.01 719.60,301.87 712.54,306.72 C700.62,314.90 690.35,330.75 686.95,346.21 C685.58,352.46 686.18,364.80 688.09,369.62 C688.72,371.21 689.59,373.96 690.01,375.75 ZM 674.73 745.00 L 677.27 747.00 L 671.88 746.82 C660.00,746.43 652.65,745.47 652.25,744.25 C651.93,743.30 654.32,743.00 662.01,743.00 C670.67,743.00 672.56,743.30 674.73,745.00 Z" fill="rgb(20,42,133)"/>
<path d="M 591.25 417.25 L 590.99 522.00 L 567.66 522.00 C554.83,522.00 544.03,521.70 543.67,521.33 C543.30,520.97 543.00,457.29 543.00,379.83 L 543.00 239.00 L 599.56 239.00 L 606.45 251.75 C610.23,258.76 617.25,271.48 622.03,280.00 C626.81,288.52 634.90,303.38 640.00,313.00 C663.01,356.42 692.65,410.39 693.65,410.69 C694.12,410.84 696.48,407.03 698.90,402.23 C701.32,397.43 708.23,384.50 714.27,373.50 C728.82,346.99 749.63,308.55 770.04,270.50 L 786.67 239.50 L 815.34 239.23 L 844.01 238.97 L 843.75 380.23 L 843.50 521.50 L 796.50 521.50 L 796.25 417.25 C796.11,359.91 795.66,313.01 795.25,313.03 C794.43,313.07 789.89,321.15 770.26,357.50 C763.13,370.70 751.99,390.95 745.49,402.50 C733.59,423.66 717.62,452.29 711.40,463.63 C707.51,470.72 707.97,470.55 691.92,470.89 C681.87,471.11 680.24,470.91 678.85,469.32 C677.33,467.58 653.00,423.96 630.98,383.50 C625.29,373.05 617.74,359.33 614.19,353.00 C610.65,346.67 604.10,334.98 599.63,327.00 L 591.50 312.50 ZM 763.38 394.00 C760.68,394.00 759.62,396.93 760.78,401.14 C759.77,397.61 759.87,396.50 761.38,393.34 L 763.15 389.62 L 765.88 394.61 C768.96,400.24 771.05,405.39 772.83,412.41 C770.38,405.17 764.84,394.00 763.38,394.00 ZM 690.01 375.75 C689.84,375.02 689.59,374.14 689.32,373.23 C690.36,375.89 691.59,377.78 692.91,378.37 C694.06,378.89 695.00,379.69 695.00,380.15 C695.00,381.91 692.61,381.03 690.54,378.76 C690.54,378.28 690.34,377.11 690.01,375.75 ZM 688.31 370.17 C688.23,369.98 688.16,369.79 688.09,369.62 C686.96,366.76 686.28,361.23 686.21,355.91 C686.35,360.85 687.13,366.02 688.31,370.17 ZM 718.44 281.47 C711.58,285.17 705.35,289.76 699.62,295.29 C704.48,290.59 709.72,286.40 714.43,283.67 C715.74,282.91 717.08,282.17 718.44,281.47 ZM 679.78 359.59 C679.16,358.08 678.68,356.71 678.38,355.61 C677.51,352.32 677.06,348.68 677.02,344.87 C677.16,350.01 678.08,354.90 679.78,359.59 ZM 776.95 434.99 C777.88,441.85 777.86,445.45 777.07,452.21 C777.69,446.91 777.70,441.77 776.95,434.99 ZM 683.26 316.93 C683.88,315.60 684.55,314.29 685.27,313.03 C688.21,307.80 693.06,301.81 698.49,296.40 C698.32,296.57 698.16,296.73 698.00,296.89 C691.46,303.52 686.63,310.06 683.26,316.93 ZM 683.66 367.79 C685.11,370.38 686.34,372.52 687.33,374.21 C686.10,372.24 684.84,370.03 683.66,367.79 Z" fill="rgb(255, 244, 161)"/>
<path d="M 762.19 391.63 L 761.38 393.34 C759.87,396.50 759.77,397.61 760.78,401.14 C760.79,401.20 760.81,401.26 760.83,401.33 C761.49,403.62 762.76,409.10 763.64,413.50 C766.52,427.81 764.36,451.57 758.82,466.50 C741.00,514.55 692.06,550.51 633.50,558.57 C615.78,561.01 588.17,560.11 570.00,556.50 C520.82,546.73 474.69,518.62 440.67,477.67 C427.20,461.46 419.29,449.38 408.74,428.92 C393.58,399.53 384.56,371.66 379.33,338.00 C377.12,323.79 376.79,277.88 378.79,263.19 C386.48,206.67 409.63,154.52 446.91,109.75 C456.22,98.57 459.75,95.00 461.50,95.00 C462.63,95.00 464.80,93.12 466.88,90.80 C465.41,92.66 464.14,94.13 463.65,94.50 C462.94,95.05 459.34,99.55 455.65,104.50 C451.96,109.45 448.50,114.04 447.97,114.71 C447.44,115.37 447.00,116.38 447.00,116.96 C447.00,117.53 446.54,118.00 445.98,118.00 C445.42,118.00 444.41,119.24 443.74,120.75 C443.06,122.26 441.72,124.37 440.76,125.44 C439.79,126.50 439.00,127.97 439.00,128.69 C439.00,129.41 438.56,130.00 438.02,130.00 C437.48,130.00 436.76,131.12 436.41,132.50 C436.07,133.88 435.38,135.00 434.89,135.00 C434.40,135.00 434.10,135.34 434.22,135.75 C434.34,136.16 431.32,142.35 427.51,149.50 C410.28,181.78 398.80,215.31 393.42,249.00 C391.23,262.75 390.36,303.24 391.96,317.26 C395.89,351.77 406.11,385.53 420.21,410.50 C423.00,415.45 426.23,421.27 427.39,423.44 C428.55,425.61 430.27,428.27 431.22,429.34 C432.16,430.42 432.71,431.66 432.44,432.09 C432.18,432.52 432.68,433.28 433.57,433.78 C434.45,434.27 435.06,435.03 434.92,435.47 C434.10,437.94 466.23,475.00 469.20,475.00 C469.71,475.00 471.59,476.46 473.37,478.25 C475.15,480.04 480.80,484.42 485.91,488.00 C491.03,491.58 495.73,494.97 496.36,495.54 C498.81,497.78 510.03,504.10 521.14,509.47 C531.44,514.46 532.84,515.45 533.36,518.05 C533.68,519.67 533.69,522.30 533.37,523.88 C533.06,525.46 533.31,527.71 533.93,528.88 C535.06,530.97 535.47,531.00 567.48,531.00 C585.30,531.00 600.12,530.61 600.42,530.13 C600.71,529.65 605.13,528.96 610.23,528.59 C622.35,527.71 643.09,524.28 647.56,522.41 C649.50,521.60 651.52,521.20 652.04,521.53 C652.57,521.85 653.00,521.59 653.00,520.95 C653.00,520.31 653.67,520.05 654.50,520.36 C655.33,520.68 656.00,520.50 656.00,519.97 C656.00,519.44 657.12,519.00 658.50,519.00 C659.88,519.00 661.00,518.55 661.00,518.00 C661.00,517.45 661.49,517.00 662.10,517.00 C663.19,517.00 680.05,508.98 681.00,508.01 C681.28,507.73 682.67,506.90 684.10,506.16 C685.53,505.43 687.86,503.85 689.29,502.66 C690.72,501.47 693.36,499.38 695.16,498.00 C700.82,493.68 712.09,481.73 715.90,476.00 C717.92,472.98 721.79,465.89 724.50,460.25 C727.21,454.61 729.81,450.00 730.28,450.00 C730.74,450.00 730.84,449.55 730.50,449.00 C730.16,448.45 730.39,448.00 731.00,448.00 C731.61,448.00 731.84,447.55 731.50,447.00 C731.16,446.45 731.29,446.00 731.78,446.00 C732.75,446.00 735.46,440.99 735.17,439.75 C735.08,439.34 735.48,439.00 736.06,439.00 C736.64,439.00 736.84,438.55 736.50,438.00 C736.16,437.45 736.39,437.00 737.00,437.00 C737.61,437.00 737.84,436.55 737.50,436.00 C737.16,435.45 737.36,435.00 737.94,435.00 C738.52,435.00 739.00,434.33 739.00,433.50 C739.00,432.67 739.48,432.00 740.06,432.00 C740.64,432.00 740.84,431.55 740.50,431.00 C740.16,430.45 740.39,430.00 741.00,430.00 C741.61,430.00 741.84,429.55 741.50,429.00 C741.16,428.45 741.39,428.00 742.00,428.00 C742.61,428.00 742.84,427.55 742.50,427.00 C742.16,426.45 742.35,426.00 742.92,426.00 C743.49,426.00 744.24,424.88 744.59,423.50 C744.93,422.12 745.64,421.00 746.17,421.00 C746.69,421.00 746.84,420.55 746.50,420.00 C746.16,419.45 746.39,419.00 747.00,419.00 C747.61,419.00 747.84,418.55 747.50,418.00 C747.16,417.45 747.36,417.00 747.94,417.00 C748.52,417.00 749.00,416.51 749.00,415.90 C749.00,414.91 753.94,405.75 760.71,394.16 ZM 691.50 742.00 C760.80,734.39 818.28,707.50 865.64,660.54 C905.03,621.47 933.03,568.96 942.97,515.50 C947.06,493.55 948.22,458.99 945.56,438.97 C938.99,389.66 918.38,346.50 887.29,316.93 C875.38,305.60 871.11,302.19 861.22,296.07 L 853.25 291.14 L 853.21 286.03 C853.05,268.38 853.20,253.48 853.56,252.91 C853.97,252.24 854.81,252.42 855.91,253.42 C856.86,254.28 859.06,255.47 860.81,256.09 C862.57,256.70 864.00,257.60 864.00,258.10 C864.00,258.59 864.56,259.00 865.25,259.00 C865.94,259.00 868.08,260.35 870.00,262.00 C871.92,263.65 873.84,265.00 874.26,265.00 C875.76,265.00 889.64,275.85 897.24,282.95 C909.27,294.19 931.00,320.39 931.00,323.65 C931.00,324.39 931.45,325.00 932.00,325.00 C932.55,325.00 933.00,325.42 933.00,325.93 C933.00,326.44 934.73,329.48 936.85,332.68 C942.08,340.58 948.00,351.92 948.00,354.03 C948.00,354.98 948.67,356.32 949.50,357.00 C950.33,357.68 951.00,358.80 951.00,359.47 C951.00,360.14 951.72,362.13 952.59,363.89 C953.47,365.65 954.34,367.85 954.52,368.79 C954.70,369.73 954.92,370.50 955.00,370.50 C955.08,370.50 955.30,371.17 955.48,372.00 C955.66,372.83 956.33,374.85 956.97,376.50 C957.61,378.15 958.00,379.54 957.82,379.60 C957.64,379.65 958.12,380.44 958.87,381.35 C959.63,382.26 959.98,383.00 959.67,383.00 C959.35,383.00 959.78,384.91 960.62,387.25 C961.46,389.59 962.84,394.88 963.69,399.00 C964.54,403.12 965.86,409.42 966.63,413.00 C967.39,416.58 968.19,421.08 968.40,423.00 C968.61,424.92 969.31,431.45 969.96,437.50 C971.76,454.30 971.46,489.33 969.47,494.29 C969.08,495.28 969.00,497.64 969.31,499.54 C969.66,501.65 969.46,503.00 968.82,503.00 C968.24,503.00 968.00,503.88 968.28,504.95 C968.56,506.03 968.43,507.04 968.00,507.20 C966.98,507.59 965.13,521.96 966.03,522.52 C967.94,523.70 963.03,541.34 958.14,550.85 C957.10,552.86 954.78,558.33 952.97,563.00 C948.23,575.23 940.63,591.28 937.07,596.56 C935.38,599.06 934.00,601.33 934.00,601.61 C934.00,602.20 919.99,623.48 917.62,626.50 C916.75,627.60 913.06,632.33 909.40,637.00 C901.32,647.35 887.10,662.29 877.02,671.02 C872.91,674.59 868.86,678.15 868.02,678.94 C859.19,687.26 824.36,709.98 811.06,716.10 C807.45,717.76 803.33,719.75 801.89,720.53 C800.46,721.31 799.05,721.71 798.76,721.42 C798.47,721.14 795.40,722.27 791.94,723.95 C788.48,725.63 785.33,727.00 784.95,727.00 C784.57,727.00 782.06,727.99 779.38,729.21 C776.69,730.42 774.15,731.32 773.73,731.20 C773.31,731.08 771.28,731.69 769.23,732.56 C765.74,734.03 757.65,736.26 743.50,739.65 C732.79,742.21 714.93,744.95 702.18,745.99 C694.28,746.63 685.23,746.88 677.03,746.81 L 674.73 745.00 C672.56,743.30 670.67,743.00 662.01,743.00 C654.32,743.00 651.94,743.30 652.24,744.25 C651.94,743.31 654.16,743.00 661.24,743.00 C667.70,743.00 675.51,742.56 682.93,741.84 C678.65,742.38 676.69,742.81 678.50,742.87 C680.70,742.93 686.55,742.54 691.50,742.00 ZM 679.78 359.59 C680.66,362.01 681.74,364.38 683.04,366.69 C683.25,367.07 683.45,367.43 683.66,367.79 C684.84,370.03 686.10,372.24 687.33,374.21 C689.20,377.41 690.25,379.00 690.48,379.00 C690.52,379.00 690.54,378.91 690.54,378.76 C691.58,379.91 692.71,380.70 693.57,380.97 C693.39,380.99 693.21,381.00 693.00,381.00 C691.90,381.00 691.00,381.45 691.00,382.00 C691.00,383.51 689.41,383.20 687.87,381.38 C686.16,379.36 676.97,362.45 673.40,354.75 C671.94,351.59 670.32,349.00 669.81,349.00 C669.30,349.00 669.16,348.55 669.50,348.00 C669.84,347.45 669.73,347.00 669.26,347.00 C668.79,347.00 667.83,345.42 667.14,343.50 C666.44,341.58 665.42,340.00 664.88,340.00 C664.33,340.00 664.16,339.55 664.50,339.00 C664.84,338.45 664.64,338.00 664.06,338.00 C663.48,338.00 663.00,337.33 663.00,336.50 C663.00,335.67 662.52,335.00 661.94,335.00 C661.36,335.00 661.16,334.55 661.50,334.00 C661.84,333.45 661.66,333.00 661.09,333.00 C660.53,333.00 660.30,332.37 660.60,331.60 C660.89,330.83 660.72,329.95 660.21,329.63 C659.12,328.96 659.86,318.99 661.13,317.40 C661.61,316.79 661.97,315.21 661.93,313.90 C661.84,311.03 662.28,308.94 663.34,307.25 C663.77,306.56 663.84,305.55 663.50,305.00 C663.16,304.45 663.41,304.00 664.05,304.00 C664.69,304.00 664.96,303.34 664.65,302.53 C664.34,301.72 664.53,300.79 665.06,300.46 C665.59,300.13 665.77,299.44 665.46,298.93 C665.14,298.42 665.36,298.00 665.94,298.00 C666.52,298.00 666.92,297.66 666.83,297.25 C666.58,296.20 669.21,290.77 670.74,289.18 C671.43,288.45 672.00,287.21 672.00,286.43 C672.00,285.64 672.48,285.00 673.06,285.00 C673.64,285.00 673.84,284.55 673.50,283.99 C673.15,283.44 673.58,282.72 674.44,282.39 C675.30,282.06 676.00,281.39 676.00,280.90 C676.00,278.91 689.92,264.21 695.36,260.47 C696.93,259.39 698.81,257.94 699.54,257.25 C700.26,256.56 701.34,256.00 701.93,256.00 C702.52,256.00 703.00,255.55 703.00,255.00 C703.00,254.45 703.67,254.00 704.50,254.00 C705.33,254.00 706.00,253.62 706.00,253.15 C706.00,252.69 707.69,251.55 709.75,250.64 C711.81,249.72 715.30,247.89 717.50,246.57 C722.79,243.40 740.49,237.55 750.68,235.62 C755.16,234.77 763.57,233.77 769.36,233.39 L 779.89 232.71 L 777.74 237.11 C776.55,239.52 775.04,242.05 774.38,242.73 C773.72,243.41 772.40,246.00 771.45,248.48 C770.50,250.97 769.37,253.00 768.93,253.00 C768.22,253.00 766.68,256.38 766.55,258.22 C766.52,258.61 765.75,259.81 764.83,260.88 C763.91,261.95 763.36,263.02 763.59,263.26 C763.83,263.50 762.84,265.43 761.39,267.57 C759.94,269.70 758.67,272.04 758.56,272.77 C758.46,273.49 757.69,274.88 756.86,275.85 C756.04,276.81 753.43,281.10 751.07,285.38 C753.43,281.10 755.96,276.91 756.69,276.05 C757.42,275.20 758.06,274.05 758.11,273.50 C758.16,272.95 758.64,271.67 759.18,270.66 C760.00,269.12 759.86,268.90 758.34,269.36 C757.33,269.66 752.46,270.65 747.51,271.56 C736.67,273.55 727.06,276.81 718.44,281.47 L 718.44 281.47 C717.07,282.17 715.74,282.91 714.43,283.67 C709.72,286.40 704.48,290.59 699.62,295.29 C699.24,295.66 698.86,296.03 698.49,296.40 C693.06,301.81 688.21,307.80 685.27,313.03 C684.55,314.29 683.88,315.60 683.26,316.93 C681.43,320.65 680.03,324.46 679.02,328.43 C677.55,334.18 676.88,339.65 677.02,344.87 C677.06,348.68 677.51,352.32 678.38,355.61 C678.68,356.71 679.16,358.08 679.78,359.59 ZM 704.46 738.55 C717.35,735.80 731.34,732.22 737.11,730.19 C729.61,732.94 716.77,736.16 704.46,738.55 ZM 853.36 303.20 L 853.89 318.43 L 853.50 318.11 ZM 471.35 84.65 C472.06,83.30 472.26,82.32 471.59,82.18 C471.48,82.16 471.37,82.15 471.25,82.15 C471.37,82.15 471.49,82.16 471.60,82.18 C472.35,82.34 472.34,83.02 471.35,84.65 ZM 694.65 379.53 C694.28,379.14 693.64,378.70 692.91,378.37 C693.76,378.75 694.34,379.16 694.65,379.53 Z" fill="rgb(36,82,158)"/>
<path d="M 943.59 659.14 C943.80,659.49 943.31,660.33 942.49,661.01 C939.86,663.19 940.85,660.35 944.29,655.83 C946.10,653.45 949.04,649.37 950.83,646.76 C952.62,644.16 954.57,642.13 955.16,642.26 C955.76,642.39 956.48,641.87 956.75,641.11 C957.09,640.18 956.84,639.98 955.98,640.52 C955.13,641.04 954.94,640.91 955.41,640.14 C955.81,639.49 956.63,639.27 957.22,639.64 C957.87,640.04 958.02,639.84 957.60,639.17 C956.89,638.01 961.30,629.55 963.25,628.35 C963.87,627.96 964.01,628.17 963.60,628.85 C963.20,629.48 963.10,630.00 963.37,630.00 C963.63,630.00 965.35,627.41 967.18,624.25 C969.00,621.09 970.95,617.76 971.50,616.87 C972.05,615.97 975.71,608.99 979.64,601.37 C983.57,593.74 987.50,586.15 988.38,584.50 C996.99,568.30 1008.41,532.22 1012.74,507.59 C1015.19,493.59 1015.38,490.40 1015.38,463.50 C1015.38,432.37 1014.42,422.78 1008.56,395.69 C999.01,351.51 975.11,301.66 948.55,270.50 C924.94,242.81 901.03,224.27 871.53,210.78 C823.63,188.90 774.73,187.53 730.23,206.81 C712.38,214.55 690.93,230.17 680.62,242.94 C662.98,264.79 654.01,284.70 651.59,307.38 C651.31,310.06 650.87,312.46 650.63,312.71 C650.08,313.26 648.00,309.60 635.64,286.33 C634.75,284.64 633.92,283.12 633.18,281.72 C628.84,273.65 626.95,270.14 627.11,266.71 C627.26,263.48 629.23,260.33 632.69,253.50 C639.38,240.32 646.24,230.80 657.50,219.12 C677.10,198.78 699.10,184.64 727.00,174.47 C730.58,173.17 740.47,170.63 749.00,168.84 C764.21,165.64 764.99,165.58 790.50,165.58 C815.99,165.58 816.81,165.65 832.48,168.87 C855.86,173.69 876.55,181.12 896.50,191.87 C905.99,196.99 927.08,211.06 927.71,212.68 C927.99,213.41 928.66,214.00 929.21,214.00 C930.09,214.00 937.16,220.42 947.95,231.00 C976.75,259.27 1000.32,297.26 1014.00,337.50 C1027.37,376.84 1031.56,404.15 1030.69,446.50 C1030.02,479.35 1027.41,497.63 1019.55,524.68 C1011.99,550.69 1000.08,578.24 986.98,600.00 C981.14,609.70 967.09,630.30 961.75,637.00 C958.90,640.58 956.60,643.72 956.65,644.00 C956.86,645.13 955.72,647.00 954.83,647.00 C954.29,647.00 954.17,646.00 954.55,644.75 C954.93,643.51 952.53,646.10 949.22,650.50 C945.91,654.90 943.38,658.79 943.59,659.14 ZM 694.65 379.53 C694.34,379.16 693.76,378.75 692.91,378.37 C692.89,378.37 692.88,378.36 692.86,378.35 C694.42,379.01 695.84,378.18 700.13,374.12 C703.08,371.32 705.85,369.03 706.29,369.02 C707.28,368.99 705.46,372.55 702.32,376.75 C700.99,378.54 700.16,380.00 700.47,380.00 C700.79,380.00 700.35,381.35 699.50,383.00 C697.66,386.56 696.26,386.85 695.82,383.76 C695.46,381.27 692.32,380.18 691.00,382.01 L 691.00 382.00 C691.00,381.45 691.90,381.00 693.00,381.00 C693.21,381.00 693.39,380.99 693.57,380.97 C694.41,381.25 695.00,381.02 695.00,380.15 C695.00,379.98 694.87,379.76 694.65,379.53 ZM 976.03 486.92 C974.36,495.60 973.80,494.27 974.43,483.07 C974.75,477.35 975.18,472.48 975.40,472.27 C976.48,471.19 976.95,482.18 976.03,486.92 ZM 683.74 374.56 C680.40,368.72 676.11,360.59 673.40,354.75 C675.69,359.68 680.29,368.40 683.74,374.56 ZM 688.02 369.14 C687.00,365.18 686.34,360.44 686.21,355.91 C686.21,355.55 686.21,355.20 686.21,354.85 C686.26,359.69 686.94,364.86 688.02,369.14 Z" fill="rgb(38,121,54)"/>
<path d="M 944.73 655.24 C946.44,652.89 948.50,649.93 949.50,648.34 C950.60,646.61 953.35,642.56 955.61,639.34 C965.11,625.84 983.74,588.20 988.57,572.75 C989.56,569.59 990.76,567.00 991.24,567.00 C991.72,567.00 991.89,566.63 991.62,566.19 C991.34,565.74 992.43,561.18 994.04,556.04 C997.59,544.72 1001.37,526.67 1003.57,510.50 C1005.63,495.35 1005.61,464.82 1003.51,449.50 C1001.31,433.39 1001.20,432.69 1000.61,430.50 C1000.31,429.40 999.35,425.19 998.47,421.14 C994.69,403.71 987.57,384.08 978.30,365.56 C974.63,358.20 962.97,340.09 961.87,340.03 C961.19,340.00 963.99,350.87 965.71,355.00 C966.29,356.38 966.81,357.84 966.87,358.25 C966.93,358.67 967.69,360.69 968.56,362.75 C970.13,366.47 972.31,375.65 975.98,394.04 C980.69,417.61 981.14,453.76 977.06,480.00 C976.82,481.52 976.59,482.97 976.36,484.33 C976.79,479.06 976.31,471.36 975.40,472.27 C975.18,472.48 974.75,477.35 974.43,483.07 C973.91,492.27 974.20,494.81 975.24,490.61 C973.68,498.76 972.40,502.46 971.57,501.11 C970.74,499.77 972.66,483.74 974.04,480.50 C975.00,478.24 976.00,461.73 975.95,449.00 C975.85,423.56 972.87,402.77 964.56,369.50 C961.43,356.94 949.57,332.03 939.69,317.25 C935.73,311.34 932.32,306.08 932.10,305.56 C930.75,302.36 908.15,279.14 899.50,272.07 C888.79,263.31 868.62,250.19 857.74,244.91 L 853.00 242.60 L 853.00 230.00 L 834.25 230.00 C821.88,230.00 812.61,229.48 807.00,228.48 C776.02,222.94 738.37,227.76 713.00,240.53 C697.88,248.14 682.51,261.13 673.99,273.51 C665.65,285.64 660.72,300.22 659.64,316.00 C659.35,320.12 659.36,322.38 659.66,321.00 C659.95,319.62 660.60,318.00 661.10,317.40 C661.59,316.79 661.97,315.22 661.93,313.90 C661.97,315.22 661.61,316.79 661.13,317.40 C659.86,318.99 659.12,328.96 660.21,329.63 C660.72,329.95 660.89,330.83 660.60,331.60 C660.30,332.37 660.53,333.00 661.09,333.00 C660.53,333.00 660.28,332.42 660.56,331.71 C660.83,331.01 660.24,329.55 659.25,328.46 C657.12,326.15 653.97,320.80 647.48,308.50 C646.81,307.24 645.93,305.58 644.91,303.66 C649.22,311.57 650.26,313.07 650.63,312.71 C650.87,312.46 651.31,310.06 651.59,307.38 C654.01,284.70 662.98,264.79 680.62,242.94 C690.93,230.17 712.38,214.55 730.23,206.81 C774.73,187.53 823.63,188.90 871.53,210.78 C901.03,224.27 924.94,242.81 948.55,270.50 C975.11,301.66 999.01,351.51 1008.56,395.69 C1014.42,422.78 1015.38,432.37 1015.38,463.50 C1015.38,490.40 1015.19,493.59 1012.74,507.59 C1008.41,532.22 996.99,568.30 988.38,584.50 C987.50,586.15 983.57,593.74 979.64,601.37 C975.71,608.99 972.05,615.97 971.50,616.87 C970.95,617.76 969.00,621.09 967.18,624.25 C965.35,627.41 963.63,630.00 963.37,630.00 C963.10,630.00 963.20,629.48 963.60,628.85 C964.01,628.17 963.87,627.96 963.25,628.35 C961.30,629.55 956.89,638.01 957.60,639.17 C958.02,639.84 957.87,640.04 957.22,639.64 C956.63,639.27 955.81,639.49 955.41,640.14 C954.94,640.91 955.13,641.04 955.98,640.52 C956.84,639.98 957.09,640.18 956.75,641.11 C956.48,641.87 955.76,642.39 955.16,642.26 C954.57,642.13 952.62,644.16 950.83,646.76 C949.18,649.17 946.55,652.82 944.73,655.24 ZM 530.37 499.79 C531.52,501.65 526.20,500.31 520.10,497.21 C511.54,492.85 495.60,482.11 490.50,477.28 C488.30,475.19 485.02,472.43 483.21,471.15 C478.06,467.49 461.89,449.06 454.37,438.28 C436.55,412.76 424.10,380.53 418.29,344.86 C415.84,329.76 415.83,288.70 418.29,273.20 C423.87,238.02 438.30,195.45 452.68,171.73 C458.66,161.86 472.90,140.97 477.37,135.50 C493.21,116.10 510.15,99.07 526.00,86.62 C535.65,79.03 551.06,68.00 552.00,68.00 C552.55,68.00 553.79,67.21 554.77,66.25 C557.43,63.62 562.10,60.77 562.73,61.40 C563.64,62.31 561.00,64.93 551.50,72.59 C539.54,82.23 511.00,110.33 511.00,112.47 C511.00,112.76 510.21,113.85 509.25,114.89 C508.29,115.93 506.15,118.71 504.50,121.06 C502.85,123.41 500.14,127.17 498.47,129.41 C493.28,136.41 480.90,157.05 475.93,167.00 C457.36,204.15 447.75,245.09 449.30,280.45 C449.89,293.98 452.72,308.39 455.65,312.87 C458.17,316.72 458.97,313.79 458.98,300.58 C458.99,294.03 459.20,288.87 459.45,289.12 C459.70,289.36 460.58,295.40 461.41,302.53 C464.47,328.64 470.20,349.02 480.82,371.50 C492.80,396.88 503.81,412.20 523.33,430.64 L 533.00 439.79 L 532.92 470.64 C532.88,487.61 532.62,500.94 532.34,500.25 C532.06,499.56 531.39,499.00 530.86,499.00 C530.32,499.00 530.10,499.35 530.37,499.79 ZM 642.50 516.55 C638.41,517.47 628.33,518.37 618.25,518.69 L 601.00 519.25 L 601.00 470.38 L 608.75 471.27 C613.01,471.76 621.00,471.90 626.50,471.59 C641.24,470.76 659.71,466.96 658.51,465.01 C658.23,464.56 659.01,464.41 660.25,464.68 C662.06,465.08 662.20,464.96 661.00,464.10 C660.17,463.51 659.95,463.06 660.50,463.09 C663.49,463.25 665.49,465.27 669.32,472.03 L 673.56 479.50 L 691.97 480.00 L 710.39 480.50 L 704.44 485.82 C688.64,499.96 665.94,511.22 642.50,516.55 ZM 943.59 659.14 C943.38,658.79 945.91,654.90 949.22,650.50 C952.53,646.10 954.93,643.51 954.55,644.75 C954.17,646.00 954.29,647.00 954.83,647.00 C955.72,647.00 956.86,645.13 956.65,644.00 C956.60,643.72 958.90,640.58 961.75,637.00 C966.64,630.87 978.82,613.10 985.32,602.69 C984.52,604.12 983.72,605.58 983.14,606.72 C981.24,610.44 981.19,610.86 982.72,610.28 C983.78,609.87 982.55,612.30 979.54,616.56 C976.83,620.38 974.31,623.72 973.94,624.00 C973.56,624.28 972.04,626.30 970.55,628.50 C969.07,630.70 964.18,636.77 959.68,641.99 C952.36,650.48 946.66,656.72 943.57,659.66 C943.65,659.44 943.67,659.26 943.59,659.14 ZM 1007.29 559.33 C1012.05,547.90 1016.22,536.14 1019.55,524.68 C1021.70,517.28 1023.46,510.54 1024.89,503.98 C1022.18,517.19 1018.43,530.13 1013.39,544.14 C1011.80,548.54 1009.68,553.80 1007.29,559.33 ZM 630.86 277.38 C628.22,272.44 626.98,269.76 627.03,267.11 C627.05,265.86 627.36,264.61 627.94,263.13 C627.44,264.43 627.16,265.57 627.11,266.71 C626.99,269.45 628.17,272.25 630.86,277.38 Z" fill="rgb(66,153,81)"/>
<path d="M 623.67 518.99 C610.54,520.16 601.61,520.28 600.64,519.30 C600.26,518.92 599.98,507.22 600.03,493.30 L 600.13 467.99 L 602.81 468.72 C606.84,469.81 639.83,469.41 645.00,468.21 C647.47,467.64 650.49,466.93 651.71,466.65 C652.92,466.36 656.05,465.19 658.65,464.04 C659.24,463.78 659.77,463.55 660.24,463.36 C660.33,463.55 660.59,463.81 661.00,464.10 C662.20,464.96 662.06,465.08 660.25,464.68 C659.01,464.41 658.23,464.56 658.51,465.01 C659.71,466.96 641.24,470.76 626.50,471.59 C621.00,471.90 613.01,471.76 608.75,471.27 L 601.00 470.38 L 601.00 519.25 L 618.25 518.69 C624.63,518.49 631.01,518.05 635.87,517.53 C631.99,518.13 627.94,518.62 623.67,518.99 ZM 966.11 527.24 C966.56,524.65 966.59,522.87 966.03,522.52 C965.13,521.96 966.98,507.59 968.00,507.20 C968.43,507.04 968.56,506.03 968.28,504.95 C968.00,503.88 968.24,503.00 968.82,503.00 C969.46,503.00 969.66,501.65 969.31,499.54 C969.00,497.64 969.08,495.28 969.47,494.29 C970.34,492.11 970.89,484.13 971.08,474.43 C971.03,480.84 970.87,486.86 970.58,491.50 C970.16,498.32 970.87,498.46 971.72,493.87 C971.35,497.50 971.23,500.56 971.57,501.11 C972.01,501.83 972.58,501.12 973.25,499.08 C971.66,506.29 969.79,513.73 967.62,521.50 C967.23,522.91 966.68,525.01 966.11,527.24 ZM 459.20 290.86 C459.56,271.47 460.55,270.21 461.21,290.50 C461.47,298.85 461.95,305.98 462.77,312.61 C462.27,309.34 461.82,305.98 461.41,302.53 C460.58,295.40 459.70,289.36 459.45,289.12 C459.36,289.02 459.27,289.67 459.20,290.86 ZM 690.91 382.53 C690.97,382.39 691.00,382.22 691.00,382.01 C692.32,380.18 695.46,381.27 695.82,383.76 C696.10,385.70 696.75,386.31 697.65,385.62 C697.38,385.86 697.15,386.00 696.97,386.00 C696.44,386.00 696.00,386.84 696.00,387.88 C696.00,389.94 693.33,392.66 692.31,391.64 C691.96,391.29 692.13,391.00 692.70,391.00 C693.26,391.00 693.61,389.92 693.46,388.60 C693.03,384.66 692.09,382.45 690.91,382.53 ZM 530.37 499.79 C530.10,499.35 530.32,499.00 530.86,499.00 C531.39,499.00 532.06,499.56 532.34,500.25 C532.41,500.43 532.48,499.66 532.55,498.13 L 532.50 503.86 L 523.00 498.83 C521.68,498.13 520.31,497.38 518.91,496.58 C519.32,496.80 519.72,497.01 520.10,497.21 C526.20,500.31 531.52,501.65 530.37,499.79 ZM 644.00 427.67 C644.00,428.41 642.92,429.00 641.56,429.00 C637.96,429.00 637.54,427.29 641.01,426.79 C643.05,426.49 644.00,426.77 644.00,427.67 ZM 978.89 464.25 C980.36,446.14 980.12,425.86 978.21,408.76 C978.51,411.01 978.75,413.11 978.92,415.00 C980.48,431.73 980.51,447.71 978.89,464.25 ZM 602.30 351.92 C601.86,352.25 601.16,352.93 600.75,353.43 C600.34,353.93 600.00,353.08 600.00,351.54 C600.00,349.14 600.21,348.93 601.55,350.04 C602.40,350.75 602.74,351.59 602.30,351.92 ZM 490.94 390.88 C499.78,405.43 510.37,418.38 523.22,430.54 C509.27,417.35 499.67,405.74 490.94,390.88 ZM 1054.00 264.24 C1054.00,265.68 1052.48,264.99 1051.22,262.98 C1050.05,261.10 1050.10,261.05 1051.98,262.22 C1053.09,262.91 1054.00,263.82 1054.00,264.24 ZM 660.88 463.12 C662.89,462.38 663.70,462.45 664.16,463.22 C664.48,463.74 665.82,466.06 667.47,468.92 C664.90,464.85 663.16,463.37 660.88,463.12 ZM 944.31 582.95 C947.33,576.61 950.53,569.30 952.97,563.00 C954.72,558.49 956.94,553.24 958.02,551.07 C956.35,554.86 954.38,559.56 953.03,563.00 C950.49,569.43 947.30,576.69 944.31,582.95 ZM 975.12 389.72 C972.09,374.81 970.16,366.82 968.74,363.19 C970.47,367.58 972.98,378.39 975.12,389.72 ZM 651.91 514.08 C659.39,511.86 666.71,509.06 673.66,505.79 C666.39,509.29 659.33,512.00 651.91,514.08 ZM 948.37 654.72 C951.39,651.46 955.24,647.14 959.68,641.99 C964.18,636.77 969.07,630.70 970.55,628.50 C967.14,633.56 955.91,646.61 948.37,654.72 ZM 952.56 643.75 C951.27,645.64 950.12,647.36 949.50,648.34 C948.54,649.85 946.63,652.62 944.98,654.91 C946.38,652.86 947.98,650.51 949.00,648.98 C949.80,647.78 951.14,645.81 952.56,643.75 ZM 974.63 477.45 C975.33,471.60 975.98,458.69 975.95,449.00 C975.93,444.13 975.81,439.43 975.56,434.78 C975.81,439.43 975.93,444.13 975.95,449.00 C975.99,459.11 975.37,471.60 974.63,477.45 ZM 972.92 485.08 C973.27,482.78 973.71,480.91 974.02,480.50 C974.04,480.48 974.06,480.45 974.07,480.41 C974.06,480.44 974.05,480.47 974.04,480.50 C973.68,481.33 973.29,483.02 972.92,485.08 ZM 457.02 314.37 C458.03,314.81 458.58,312.87 458.86,307.65 C458.63,312.84 458.08,314.85 457.02,314.37 ZM 967.06 358.75 C967.04,358.83 967.21,359.35 967.50,360.12 C967.14,359.19 966.90,358.48 966.87,358.25 C966.83,358.00 966.62,357.35 966.34,356.57 C966.79,357.74 967.09,358.65 967.06,358.75 ZM 965.53 354.55 C964.68,352.37 963.61,348.79 962.83,345.72 C963.59,348.67 964.63,352.14 965.53,354.55 ZM 532.99 444.74 L 533.00 439.79 L 533.03 439.81 ZM 470.55 345.87 C470.71,346.34 470.86,346.81 471.03,347.29 C471.78,349.53 472.56,351.74 473.36,353.91 C472.36,351.23 471.43,348.56 470.55,345.87 ZM 498.92 483.90 C495.32,481.34 492.33,479.01 490.50,477.28 C492.26,478.95 495.32,481.33 498.92,483.90 ZM 943.56 659.69 L 943.57 659.66 C944.22,659.04 944.99,658.27 945.87,657.36 C945.00,658.26 944.22,659.05 943.56,659.69 ZM 688.02 381.55 C687.98,381.51 687.95,381.47 687.91,381.43 C687.90,381.41 687.89,381.40 687.87,381.38 C687.92,381.44 687.97,381.50 688.02,381.55 Z" fill="rgb(36,82,158)"/>
<path d="M 533.79 381.50 C533.83,409.55 533.55,433.26 533.18,434.18 C532.69,435.41 532.05,435.62 530.86,434.94 C527.14,432.86 509.18,413.88 502.99,405.50 C493.12,392.15 478.71,365.67 477.41,358.50 C477.13,356.95 476.38,354.75 475.74,353.60 C475.10,352.44 474.50,351.16 474.41,350.75 C474.32,350.34 474.14,349.77 474.00,349.50 C473.86,349.23 473.64,348.55 473.50,348.00 C473.36,347.45 473.16,346.89 473.05,346.75 C472.94,346.61 472.65,345.41 472.41,344.08 C472.16,342.75 471.53,341.14 471.00,340.51 C470.48,339.87 469.79,337.23 469.48,334.63 C469.17,332.03 468.40,328.69 467.76,327.20 C467.13,325.72 466.55,324.05 466.49,323.50 C466.42,322.95 466.07,321.15 465.70,319.50 C465.33,317.85 464.79,314.92 464.50,313.00 C464.21,311.08 463.68,308.15 463.34,306.50 C463.00,304.85 462.75,293.38 462.79,281.00 C462.87,255.73 464.08,245.69 469.60,224.50 C470.46,221.17 470.65,220.61 471.87,217.61 C472.52,216.02 472.84,214.50 472.57,214.23 C472.30,213.97 472.75,212.46 473.56,210.88 C474.37,209.31 475.09,207.68 475.15,207.26 C475.21,206.84 475.40,206.05 475.58,205.50 C475.77,204.95 476.86,201.57 478.01,198.00 C483.66,180.51 502.14,147.83 516.68,129.61 C529.16,113.97 559.21,85.69 568.25,81.07 C569.76,80.29 571.00,79.29 571.00,78.83 C571.00,78.37 571.67,78.00 572.50,78.00 C573.33,78.00 574.00,77.61 574.00,77.13 C574.00,76.04 589.17,66.00 590.81,66.00 C591.46,66.00 592.00,65.58 592.00,65.08 C592.00,64.57 593.55,63.64 595.44,63.02 C597.32,62.40 599.01,61.53 599.19,61.10 C599.81,59.54 619.73,49.66 632.00,44.84 C638.87,42.14 645.57,39.48 646.88,38.93 C650.94,37.22 650.47,38.81 646.37,40.67 C644.24,41.63 641.71,43.07 640.75,43.87 C639.79,44.66 639.00,45.02 639.00,44.68 C639.00,44.08 630.95,48.14 617.39,55.59 C610.78,59.21 595.71,69.18 586.33,76.13 C562.63,93.68 537.30,121.71 521.64,147.71 C515.25,158.33 505.29,180.00 501.54,191.46 C492.91,217.79 490.87,229.96 490.26,258.75 C489.95,273.31 490.13,282.00 490.73,282.00 C491.26,282.00 491.98,276.49 492.33,269.75 C493.94,238.79 501.38,211.16 515.94,182.06 C524.64,164.66 530.29,155.92 543.81,139.00 C556.16,123.54 584.54,97.62 602.50,85.41 C637.00,61.95 675.34,46.82 720.50,38.83 C732.18,36.77 736.64,36.53 764.50,36.52 C796.32,36.50 799.45,36.77 823.50,41.53 C843.73,45.54 867.01,52.33 881.18,58.36 C885.76,60.30 891.75,62.77 894.50,63.84 C908.96,69.45 932.24,82.52 951.15,95.62 C957.55,100.06 980.59,118.21 982.00,119.92 C982.28,120.25 986.27,123.90 990.88,128.01 C998.83,135.11 1015.18,153.27 1028.63,169.91 C1036.57,179.74 1042.00,185.64 1042.00,184.43 C1042.00,183.90 1040.87,181.80 1039.48,179.76 C1038.09,177.72 1037.53,176.27 1038.23,176.54 C1038.93,176.81 1040.00,178.04 1040.60,179.27 C1041.21,180.50 1044.47,185.98 1047.85,191.46 C1053.25,200.21 1054.00,202.04 1054.00,206.46 L 1053.99 211.50 L 1050.10 207.00 C1047.96,204.52 1046.42,202.15 1046.68,201.72 C1046.94,201.29 1045.77,199.36 1044.08,197.44 C1041.21,194.17 1040.55,192.75 1040.91,190.68 C1040.99,190.22 1040.64,190.11 1040.13,190.42 C1039.63,190.73 1035.91,187.52 1031.86,183.28 C1022.23,173.20 1002.73,154.30 996.88,149.38 C994.34,147.25 989.23,143.02 985.53,140.00 C981.83,136.98 977.38,133.33 975.65,131.89 C972.84,129.56 956.51,118.28 940.79,107.80 C932.31,102.14 911.99,91.27 899.50,85.71 C866.49,71.01 839.27,62.85 806.60,57.88 C789.42,55.26 750.28,54.23 733.45,55.95 C677.77,61.64 631.42,79.84 595.50,110.12 C554.85,144.39 531.57,188.26 526.87,239.45 C524.80,262.04 527.39,304.79 531.05,308.45 C531.65,309.05 532.07,295.28 532.19,270.95 L 532.39 232.50 L 533.06 281.50 C533.42,308.45 533.75,353.45 533.79,381.50 ZM 644.00 427.67 C644.00,427.01 643.49,426.68 642.42,426.67 C643.58,426.57 644.00,426.84 644.00,427.52 C644.00,428.24 644.35,428.98 644.79,429.17 C645.22,429.35 651.58,440.30 658.91,453.50 C662.67,460.26 666.20,466.54 668.81,471.15 C668.34,470.33 667.89,469.59 667.47,468.92 C665.82,466.06 664.48,463.74 664.16,463.22 C663.70,462.45 662.89,462.38 660.88,463.12 C660.75,463.10 660.63,463.09 660.50,463.09 C660.22,463.07 660.14,463.18 660.24,463.36 C659.77,463.55 659.24,463.78 658.65,464.04 C656.05,465.19 652.92,466.36 651.71,466.65 C650.49,466.93 647.47,467.64 645.00,468.21 C639.83,469.41 606.84,469.81 602.81,468.72 L 600.13 467.99 L 600.06 485.35 C600.03,479.55 600.02,473.27 600.02,466.74 C600.02,425.75 600.28,414.90 601.26,415.31 C601.94,415.60 607.00,417.74 612.50,420.07 C624.89,425.31 634.37,427.81 639.44,427.19 C637.82,427.89 638.65,429.00 641.56,429.00 C642.92,429.00 644.00,428.41 644.00,427.67 ZM 704.46 738.55 C697.85,739.83 691.39,740.88 686.00,741.47 C684.88,741.60 683.85,741.72 682.93,741.84 C675.51,742.56 667.70,743.00 661.24,743.00 C654.16,743.00 651.94,743.31 652.24,744.25 L 652.25 744.25 C652.52,745.09 656.11,745.81 662.22,746.31 C652.66,745.78 645.42,744.83 644.20,743.62 C643.13,742.55 645.92,742.20 659.70,741.67 C704.23,739.94 746.27,728.19 786.50,706.24 C794.55,701.84 811.31,690.88 815.00,687.59 C816.38,686.37 818.74,684.59 820.26,683.65 C821.78,682.71 828.08,677.52 834.26,672.11 C865.92,644.42 895.15,601.07 907.61,563.34 C909.58,557.38 911.60,552.00 912.10,551.39 C912.98,550.32 913.46,548.46 916.31,535.00 C917.07,531.42 918.39,526.03 919.24,523.00 C920.09,519.97 921.31,513.00 921.94,507.50 C922.57,502.00 923.34,495.48 923.64,493.01 C924.77,483.87 924.08,455.90 922.48,446.21 C920.36,433.33 917.14,418.15 916.10,416.13 C915.64,415.23 914.96,412.81 914.58,410.74 C914.21,408.67 912.80,404.78 911.45,402.09 C910.10,399.41 909.00,396.86 909.00,396.43 C909.00,395.23 896.30,370.11 892.95,364.68 C886.43,354.11 878.21,343.99 867.85,333.75 C861.86,327.84 856.18,323.00 855.22,323.00 C854.45,323.00 854.01,322.43 853.74,318.31 L 853.89 318.43 L 853.43 305.06 L 853.89 318.43 L 857.70 321.59 C868.27,330.38 884.33,347.58 889.60,355.76 C891.64,358.92 894.36,363.19 895.65,365.25 C896.94,367.31 899.12,370.71 900.50,372.80 C901.88,374.90 903.00,377.00 903.00,377.48 C903.00,377.96 904.54,381.53 906.42,385.43 C911.35,395.64 913.69,401.33 914.53,405.13 C914.93,406.97 915.83,409.38 916.52,410.49 C917.21,411.59 918.31,414.98 918.96,418.00 C919.62,421.02 920.56,424.62 921.06,426.00 C921.57,427.38 922.93,435.25 924.10,443.50 C926.99,463.90 927.04,486.42 924.23,506.50 C922.36,519.90 920.89,526.66 915.66,546.00 C913.10,555.45 901.41,585.72 898.47,590.50 C897.80,591.60 895.91,594.97 894.27,598.00 C888.47,608.71 886.78,611.52 884.90,613.56 C883.86,614.70 882.99,616.27 882.98,617.06 C882.97,617.85 882.05,619.62 880.95,621.00 C879.84,622.38 877.27,625.97 875.24,629.00 C869.82,637.05 864.75,643.27 853.26,655.95 C835.47,675.58 821.05,687.32 796.38,702.26 C790.27,705.97 784.82,709.00 784.29,709.00 C783.75,709.00 782.50,709.90 781.50,711.00 C780.50,712.10 779.23,713.00 778.66,713.00 C778.09,713.00 775.80,713.85 773.57,714.89 C771.33,715.93 766.80,717.98 763.50,719.45 C760.20,720.92 756.15,722.73 754.50,723.47 C752.85,724.21 749.70,725.48 747.50,726.28 C745.30,727.09 741.03,728.70 738.00,729.86 C737.71,729.97 737.41,730.08 737.11,730.19 L 737.11 730.19 C731.34,732.22 717.35,735.80 704.46,738.55 ZM 622.50 587.53 C618.81,588.86 597.48,589.44 591.50,588.37 C590.40,588.18 584.78,587.58 579.00,587.04 C562.04,585.46 552.25,583.19 526.18,574.79 C506.45,568.43 472.31,550.00 458.56,538.28 C457.42,537.30 452.88,533.51 448.49,529.86 C435.66,519.20 417.97,500.19 408.98,487.40 C406.50,483.88 398.51,471.85 394.47,465.58 C386.09,452.54 372.14,421.47 367.51,405.50 C363.47,391.59 358.85,370.06 356.79,355.50 C355.07,343.38 355.09,298.57 356.83,285.50 C359.10,268.36 364.27,243.22 366.91,236.50 C367.34,235.40 369.16,230.00 370.95,224.50 C376.33,208.02 389.12,180.40 398.98,164.00 C403.37,156.71 404.36,153.53 400.46,159.27 C399.07,161.32 397.69,163.00 397.40,163.00 C397.11,163.00 398.70,160.41 400.93,157.25 C405.23,151.14 410.62,144.57 409.43,146.88 C408.96,147.79 409.19,148.11 410.11,147.83 C410.87,147.59 412.47,145.40 413.65,142.95 C414.64,140.91 417.12,137.48 420.58,133.19 C416.78,138.13 413.94,142.47 411.99,146.29 C409.70,150.80 407.03,155.40 406.06,156.50 C401.48,161.71 379.00,204.11 379.00,207.53 C379.00,208.31 377.85,211.54 376.44,214.72 C369.89,229.47 363.04,255.48 359.90,277.50 C356.20,303.43 355.82,336.30 358.97,357.00 C361.98,376.77 363.53,383.99 368.25,400.50 C374.74,423.17 385.80,448.64 395.64,463.60 C397.49,466.41 399.00,468.97 399.00,469.28 C399.00,469.78 401.22,473.13 408.96,484.38 C411.33,487.83 423.11,502.19 426.95,506.32 C434.32,514.26 450.20,529.55 452.55,530.98 C453.90,531.80 455.00,532.80 455.00,533.20 C455.00,533.95 473.94,546.98 483.30,552.66 C489.90,556.66 509.76,566.48 520.50,571.04 C522.88,572.06 534.93,575.77 547.72,579.43 C555.55,581.68 572.10,584.55 587.50,586.35 C595.17,587.24 632.83,586.11 643.02,584.77 C638.53,585.55 634.53,586.02 631.66,586.04 C628.82,586.07 624.70,586.74 622.50,587.53 ZM 738.65 534.12 C743.73,528.75 748.01,523.63 749.43,520.86 C750.94,517.91 752.90,514.94 753.78,514.25 C756.26,512.31 768.00,491.27 768.00,488.76 C768.00,488.05 768.84,485.90 769.86,483.99 C772.19,479.64 775.62,464.48 777.07,452.21 C777.69,446.91 777.70,441.77 776.95,434.99 C776.37,429.86 775.36,423.79 773.84,416.00 C773.65,415.01 773.29,413.78 772.83,412.41 C771.05,405.39 768.96,400.24 765.88,394.61 L 763.35 389.99 C763.97,389.46 764.41,389.82 765.21,390.73 C770.43,396.65 777.47,416.99 778.81,430.00 C781.74,458.45 774.51,487.48 758.50,511.50 C755.22,516.42 746.96,525.65 738.65,534.12 ZM 688.31 370.17 C688.21,369.83 688.12,369.49 688.02,369.14 C686.94,364.86 686.26,359.69 686.21,354.85 C686.21,351.60 686.45,348.50 686.95,346.21 C690.35,330.75 700.62,314.90 712.54,306.72 C719.60,301.87 732.89,295.01 735.22,294.99 C735.92,294.99 737.78,294.32 739.35,293.50 C740.92,292.68 743.23,292.27 744.49,292.59 C746.33,293.05 747.15,292.35 750.18,286.97 C748.18,290.64 746.53,293.93 746.52,294.50 C746.51,295.05 744.62,295.58 742.32,295.69 C740.02,295.79 736.87,296.51 735.32,297.29 C733.77,298.08 731.03,298.99 729.23,299.34 C724.76,300.19 711.06,309.12 706.29,314.30 C697.77,323.54 691.46,334.72 689.02,344.92 C686.58,355.08 690.03,376.98 694.19,377.79 C695.01,377.95 697.97,376.02 700.81,373.48 C700.58,373.69 700.36,373.90 700.13,374.12 C695.84,378.18 694.42,379.01 692.86,378.35 C691.55,377.73 690.34,375.85 689.32,373.23 C688.99,372.15 688.63,371.05 688.31,370.17 ZM 442.25 108.87 C450.41,100.29 459.05,91.75 466.37,85.18 C469.56,82.33 471.48,81.46 471.85,82.27 C471.78,82.23 471.69,82.20 471.60,82.18 C471.49,82.16 471.37,82.15 471.25,82.15 L 471.25 82.15 C469.33,82.17 465.65,85.54 448.07,103.00 C446.05,105.01 444.10,106.97 442.25,108.87 ZM 404.20 154.05 C403.53,155.12 403.39,156.00 403.88,156.00 C404.78,156.00 406.33,153.00 405.74,152.40 C405.56,152.23 404.88,152.97 404.20,154.05 ZM 710.07 480.49 L 693.76 480.05 L 710.50 480.09 ZM 676.32 479.58 L 673.56 479.50 L 670.06 473.34 C671.86,476.48 673.03,478.47 673.25,478.75 C673.53,479.11 674.48,479.38 676.32,479.58 ZM 700.59 380.00 C700.85,380.00 700.35,381.35 699.50,383.00 C700.35,381.35 700.79,380.00 700.47,380.00 C700.16,380.00 700.99,378.54 702.32,376.75 C702.40,376.65 702.48,376.54 702.55,376.44 C701.23,378.50 700.39,380.00 700.59,380.00 ZM 762.19 391.63 L 760.71 394.16 C759.43,396.35 758.22,398.45 757.09,400.43 C758.28,398.32 759.61,396.00 761.07,393.44 C761.59,392.54 762.01,391.82 762.36,391.27 ZM 648.41 583.71 C652.09,582.89 656.32,581.84 659.20,581.01 C655.65,582.03 651.97,582.95 648.41,583.71 ZM 853.21 288.08 C853.19,285.78 853.18,283.55 853.17,281.40 C853.18,282.92 853.19,284.46 853.21,286.03 L 853.25 291.14 L 853.23 291.12 C853.23,290.14 853.22,289.12 853.21,288.08 ZM 856.00 253.50 C855.97,253.47 855.94,253.45 855.91,253.42 C855.01,252.60 854.28,252.33 853.82,252.63 C853.83,252.61 853.84,252.60 853.86,252.59 C854.36,252.28 855.31,252.67 855.97,253.46 C855.98,253.47 855.99,253.48 856.00,253.50 ZM 719.73 551.42 C716.70,553.49 714.20,555.54 714.01,556.10 C714.20,555.54 716.69,553.49 719.70,551.42 C720.36,550.96 721.07,550.44 721.83,549.86 C721.05,550.47 720.35,550.99 719.73,551.42 ZM 600.68 519.34 C600.68,519.34 600.67,519.34 600.67,519.33 C601.28,519.84 604.13,520.04 608.68,519.93 C604.08,520.04 601.18,519.85 600.68,519.34 ZM 751.83 409.92 C750.04,413.27 749.00,415.45 749.00,415.90 C749.00,415.43 749.92,413.48 751.83,409.92 ZM 853.36 303.20 L 853.40 306.87 C853.38,305.54 853.36,304.08 853.34,302.52 ZM 706.46 369.88 C706.55,369.59 706.58,369.36 706.54,369.22 C706.55,369.22 706.56,369.23 706.57,369.23 C706.64,369.30 706.60,369.53 706.46,369.88 ZM 863.18 257.21 C863.69,257.54 864.00,257.85 864.00,258.08 C863.98,257.85 863.67,257.54 863.18,257.21 Z" fill="rgb(72,13,114)"/>
<path d="M 533.79 381.50 C533.75,353.45 533.42,308.45 533.06,281.50 L 532.39 232.50 L 532.19 270.95 C532.07,295.28 531.65,309.05 531.05,308.45 C527.39,304.79 524.80,262.04 526.87,239.45 C531.57,188.26 554.85,144.39 595.50,110.12 C631.42,79.84 677.77,61.64 733.45,55.95 C750.28,54.23 789.42,55.26 806.60,57.88 C839.27,62.85 866.49,71.01 899.50,85.71 C911.99,91.27 932.31,102.14 940.79,107.80 C956.51,118.28 972.84,129.56 975.65,131.89 C977.38,133.33 981.83,136.98 985.53,140.00 C989.23,143.02 994.34,147.25 996.88,149.38 C1002.73,154.30 1022.23,173.20 1031.86,183.28 C1035.91,187.52 1039.63,190.73 1040.13,190.42 C1040.64,190.11 1040.99,190.22 1040.91,190.68 C1040.55,192.75 1041.21,194.17 1044.08,197.44 C1045.77,199.36 1046.94,201.29 1046.68,201.72 C1046.42,202.15 1047.96,204.52 1050.10,207.00 L 1053.95 211.45 L 1053.95 211.50 L 1049.64 206.98 C1047.26,204.49 1045.13,202.01 1044.89,201.48 C1043.80,198.97 1006.35,163.85 1001.75,161.02 C1000.24,160.09 997.22,157.68 995.04,155.66 C992.87,153.65 990.72,152.00 990.27,152.00 C989.82,152.00 988.09,150.76 986.43,149.25 C984.77,147.74 982.18,145.94 980.68,145.26 C979.17,144.58 977.68,143.34 977.36,142.51 C977.05,141.68 976.30,141.00 975.72,141.00 C975.13,141.00 971.69,139.02 968.07,136.59 C941.09,118.49 913.98,105.30 882.78,95.09 C825.14,76.21 768.42,73.32 715.00,86.53 C702.60,89.59 688.89,93.89 687.55,95.12 C687.03,95.61 685.34,96.00 683.80,96.00 C682.26,96.00 681.00,96.45 681.00,97.00 C681.00,97.55 680.25,98.00 679.33,98.00 C678.41,98.00 676.95,98.63 676.08,99.40 C675.21,100.16 672.34,101.52 669.70,102.40 C664.61,104.11 656.83,107.82 656.00,108.94 C655.72,109.31 654.04,110.21 652.25,110.93 C650.46,111.65 649.00,112.64 649.00,113.12 C649.00,113.60 648.42,114.00 647.71,114.00 C645.97,114.00 623.62,128.85 618.11,133.67 C602.31,147.48 594.93,154.38 590.99,159.01 C588.52,161.92 585.27,165.70 583.77,167.40 C582.26,169.11 581.02,171.01 581.02,171.64 C581.01,172.27 580.32,173.05 579.49,173.36 C578.66,173.68 577.42,175.18 576.74,176.68 C576.06,178.19 574.48,180.53 573.23,181.88 C571.98,183.24 570.69,185.39 570.37,186.67 C570.05,187.95 569.42,189.00 568.97,189.00 C568.52,189.00 567.64,190.57 567.00,192.50 C566.36,194.43 565.46,196.00 564.99,196.00 C564.14,196.00 562.81,199.05 563.26,200.00 C563.39,200.27 562.46,201.95 561.19,203.73 C559.93,205.51 558.71,207.76 558.49,208.73 C558.26,209.70 556.49,214.32 554.56,219.00 C552.62,223.68 551.03,227.95 551.02,228.50 C551.01,229.09 547.41,229.50 542.25,229.50 L 533.50 229.50 L 533.85 330.50 C534.05,386.05 533.82,432.48 533.35,433.68 C533.31,433.80 533.26,433.91 533.22,434.01 C533.57,431.62 533.83,408.58 533.79,381.50 ZM 1038.85 176.95 C1038.63,176.76 1038.42,176.61 1038.23,176.54 C1037.53,176.27 1038.09,177.72 1039.48,179.76 C1040.87,181.80 1042.00,183.90 1042.00,184.43 C1042.00,185.64 1036.57,179.74 1028.63,169.91 C1015.18,153.27 998.83,135.11 990.88,128.01 C986.27,123.90 982.28,120.25 982.00,119.92 C980.59,118.21 957.55,100.06 951.15,95.62 C932.24,82.52 908.96,69.45 894.50,63.84 C891.75,62.77 885.76,60.30 881.18,58.36 C867.01,52.33 843.73,45.54 823.50,41.53 C799.45,36.77 796.32,36.50 764.50,36.52 C736.64,36.53 732.18,36.77 720.50,38.83 C675.34,46.82 637.00,61.95 602.50,85.41 C584.54,97.62 556.16,123.54 543.81,139.00 C530.29,155.92 524.64,164.66 515.94,182.06 C501.38,211.16 493.94,238.79 492.33,269.75 C491.98,276.49 491.26,282.00 490.73,282.00 C490.13,282.00 489.95,273.31 490.26,258.75 C490.87,229.96 492.91,217.79 501.54,191.46 C505.29,180.00 515.25,158.33 521.64,147.71 C537.30,121.71 562.63,93.68 586.33,76.13 C595.71,69.18 610.78,59.21 617.39,55.59 C630.95,48.14 639.00,44.08 639.00,44.68 C639.00,45.02 639.79,44.66 640.75,43.87 C641.71,43.07 644.24,41.63 646.37,40.67 C648.94,39.50 650.08,38.45 649.58,38.24 C649.89,38.13 650.20,38.03 650.50,37.94 C654.35,36.71 657.72,35.39 658.00,35.01 C659.01,33.61 699.20,24.01 713.14,21.84 C725.65,19.88 731.36,19.59 757.50,19.59 C780.75,19.59 790.31,19.99 800.00,21.36 C814.79,23.44 837.23,28.08 845.57,30.77 C848.83,31.83 854.42,33.51 858.00,34.52 C868.73,37.54 885.81,44.38 897.50,50.33 C912.20,57.82 923.04,63.90 924.75,65.60 C925.51,66.37 926.69,67.00 927.37,67.00 C928.04,67.00 929.47,67.68 930.55,68.50 C931.62,69.33 937.15,73.09 942.83,76.86 C978.77,100.73 1011.33,134.69 1038.85,176.95 ZM 402.51 155.04 C401.98,155.78 401.44,156.52 400.93,157.25 C398.70,160.41 397.11,163.00 397.40,163.00 C397.69,163.00 399.07,161.32 400.46,159.27 C404.36,153.53 403.37,156.71 398.98,164.00 C389.64,179.54 377.67,205.14 371.86,221.81 C375.16,212.11 378.72,203.75 387.43,185.00 C390.89,177.57 394.20,170.00 394.80,168.18 C395.79,165.14 395.74,164.96 394.19,166.11 C393.26,166.80 393.50,166.27 394.72,164.93 C395.86,163.69 399.25,159.39 402.51,155.04 ZM 423.78 129.17 C422.64,130.55 421.58,131.89 420.58,133.19 C417.12,137.48 414.64,140.91 413.65,142.95 C412.47,145.40 410.87,147.59 410.11,147.83 C409.19,148.11 408.96,147.79 409.43,146.88 C410.21,145.37 408.19,147.64 405.49,151.10 C408.49,147.20 411.66,143.26 413.25,141.50 C415.03,139.52 419.56,134.22 423.78,129.17 ZM 622.50 587.53 C624.70,586.74 628.82,586.07 631.66,586.04 C634.53,586.02 638.53,585.55 643.02,584.77 C643.44,584.71 643.81,584.66 644.13,584.60 C642.55,584.94 640.98,585.27 639.50,585.57 C631.59,587.18 625.95,587.92 617.76,588.30 C619.98,588.08 621.68,587.83 622.50,587.53 ZM 404.20 154.05 C404.88,152.97 405.56,152.23 405.74,152.40 C406.33,153.00 404.78,156.00 403.88,156.00 C403.39,156.00 403.53,155.12 404.20,154.05 ZM 617.96 50.95 C608.46,55.39 599.60,60.06 599.19,61.10 C599.71,59.78 607.82,55.56 617.96,50.95 ZM 1050.08 195.13 C1049.44,194.05 1048.71,192.84 1047.85,191.46 C1045.99,188.44 1044.16,185.41 1042.79,183.10 C1044.12,185.22 1045.43,187.35 1046.74,189.50 C1048.08,191.72 1049.18,193.57 1050.08,195.13 ZM 592.70 588.54 C592.10,588.51 591.69,588.48 591.50,588.44 C590.40,588.20 584.78,587.58 579.00,587.04 C584.78,587.58 590.40,588.18 591.50,588.37 C591.85,588.43 592.25,588.49 592.70,588.54 ZM 639.55 41.86 C638.01,42.47 636.34,43.13 634.60,43.82 C636.28,43.14 637.93,42.49 639.55,41.86 Z" fill="rgb(112,37,144)"/>
<path d="M 853.35 328.02 C853.33,318.87 853.32,310.08 853.32,301.93 L 853.34 302.52 C853.36,304.08 853.38,305.54 853.40,306.87 L 853.50 318.11 L 853.74 318.31 C854.01,322.43 854.45,323.00 855.22,323.00 C856.18,323.00 861.86,327.84 867.85,333.75 C878.21,343.99 886.43,354.11 892.95,364.68 C896.30,370.11 909.00,395.23 909.00,396.43 C909.00,396.86 910.10,399.41 911.45,402.09 C912.80,404.78 914.21,408.67 914.58,410.74 C914.96,412.81 915.64,415.23 916.10,416.13 C917.14,418.15 920.36,433.33 922.48,446.21 C924.08,455.90 924.77,483.87 923.64,493.01 C923.34,495.48 922.57,502.00 921.94,507.50 C921.31,513.00 920.09,519.97 919.24,523.00 C918.39,526.03 917.07,531.42 916.31,535.00 C913.46,548.46 912.98,550.32 912.10,551.39 C911.60,552.00 909.58,557.38 907.61,563.34 C895.15,601.07 865.92,644.42 834.26,672.11 C828.08,677.52 821.78,682.71 820.26,683.65 C818.74,684.59 816.38,686.37 815.00,687.59 C811.31,690.88 794.55,701.84 786.50,706.24 C746.27,728.19 704.23,739.94 659.70,741.67 C645.92,742.20 643.13,742.55 644.20,743.62 C645.42,744.83 652.66,745.78 662.22,746.31 L 662.28 746.31 C652.93,745.85 645.75,745.04 644.50,744.00 C643.90,743.50 639.38,742.83 634.45,742.50 C629.53,742.17 623.92,741.51 622.00,741.05 C620.08,740.58 615.35,739.91 611.50,739.56 C574.65,736.20 524.39,717.26 487.38,692.79 C455.75,671.87 418.42,638.68 390.83,606.92 C376.21,590.09 372.10,582.32 384.13,594.23 C387.63,597.70 394.33,604.22 399.00,608.73 C403.67,613.23 409.08,618.63 411.00,620.73 C412.92,622.83 420.35,629.09 427.50,634.65 C470.67,668.19 522.79,689.01 580.00,695.57 C600.23,697.89 638.13,697.12 656.00,694.02 C716.14,683.59 766.98,657.91 807.47,617.51 C833.03,592.00 849.60,565.15 860.85,531.00 C873.97,491.18 872.62,446.63 857.21,411.00 L 853.53 402.50 ZM 644.40 584.55 C645.57,584.33 646.95,584.04 648.41,583.71 C651.97,582.95 655.65,582.03 659.20,581.01 C668.68,578.27 691.45,569.22 696.23,566.29 C698.28,565.03 700.42,564.00 700.97,564.00 C701.53,564.00 704.05,562.42 706.57,560.50 C709.09,558.58 711.79,557.00 712.58,557.00 C713.36,557.00 714.00,556.62 714.00,556.17 C714.00,556.15 714.00,556.13 714.01,556.10 C714.20,555.54 716.70,553.49 719.73,551.42 C720.35,550.99 721.05,550.47 721.83,549.86 C726.61,546.15 733.11,539.99 738.65,534.12 C746.96,525.65 755.22,516.42 758.50,511.50 C774.51,487.48 781.74,458.45 778.81,430.00 C777.47,416.99 770.43,396.65 765.21,390.73 C764.41,389.82 763.97,389.46 763.35,389.99 L 763.25 389.80 C764.77,387.08 766.44,384.04 768.10,381.00 C772.59,372.75 776.41,366.00 776.60,366.00 C776.79,366.00 778.98,366.99 781.47,368.20 L 786.00 370.40 L 786.00 449.50 C786.00,509.69 786.29,528.89 787.20,529.80 C787.95,530.55 791.69,531.00 797.20,531.00 C802.04,531.00 806.00,531.30 806.00,531.66 C806.00,532.80 792.70,552.20 788.65,556.97 C781.51,565.37 764.55,582.25 757.84,587.62 C728.21,611.32 687.80,628.04 644.50,634.51 C629.25,636.79 585.85,637.38 573.38,635.48 C522.28,627.69 476.83,607.87 437.50,576.25 C427.62,568.32 402.72,543.64 395.98,535.10 C394.06,532.69 390.46,528.19 387.97,525.10 C385.48,522.02 381.98,517.19 380.19,514.36 C378.40,511.53 375.80,508.00 374.42,506.51 C373.04,505.02 367.53,494.96 362.17,484.15 C347.20,453.95 338.43,426.02 334.81,397.00 C333.08,383.14 333.07,333.64 334.79,321.50 C338.59,294.71 342.16,278.65 349.11,257.00 C357.87,229.75 376.16,191.84 389.70,172.88 C391.52,170.34 393.00,167.88 393.00,167.42 C393.00,166.95 393.89,165.65 394.97,164.54 C395.98,163.50 399.26,159.36 402.51,155.04 C399.25,159.39 395.86,163.69 394.72,164.93 C393.50,166.27 393.26,166.80 394.19,166.11 C395.74,164.96 395.79,165.14 394.80,168.18 C394.20,170.00 390.89,177.57 387.43,185.00 C378.72,203.75 375.16,212.11 371.86,221.81 L 371.86 221.81 C371.54,222.73 371.24,223.63 370.95,224.50 C369.16,230.00 367.34,235.40 366.91,236.50 C364.27,243.22 359.10,268.36 356.83,285.50 C355.09,298.57 355.07,343.38 356.79,355.50 C358.85,370.06 363.47,391.59 367.51,405.50 C372.14,421.47 386.09,452.54 394.47,465.58 C398.51,471.85 406.50,483.88 408.98,487.40 C417.97,500.19 435.66,519.20 448.49,529.86 C452.88,533.51 457.42,537.30 458.56,538.28 C472.31,550.00 506.45,568.43 526.18,574.79 C552.25,583.19 562.04,585.46 579.00,587.04 C584.78,587.58 590.40,588.20 591.50,588.44 C591.69,588.48 592.10,588.51 592.70,588.54 C598.20,589.17 610.64,588.98 617.76,588.30 C625.95,587.92 631.59,587.18 639.50,585.57 C640.98,585.27 642.55,584.94 644.13,584.60 C644.22,584.58 644.31,584.57 644.40,584.55 ZM 699.20 374.85 C696.93,376.68 694.85,377.92 694.19,377.79 C690.03,376.98 686.58,355.08 689.02,344.92 C691.46,334.72 697.77,323.54 706.29,314.30 C711.06,309.12 724.76,300.19 729.23,299.34 C731.03,298.99 733.77,298.08 735.32,297.29 C736.87,296.51 740.02,295.79 742.32,295.69 C744.24,295.60 745.88,295.21 746.37,294.77 C746.37,294.78 746.36,294.79 746.36,294.80 C746.25,295.52 741.79,304.07 736.45,313.80 C731.11,323.54 725.22,334.28 723.36,337.69 C721.50,341.09 719.19,344.13 718.24,344.44 C714.23,345.74 703.72,357.56 699.99,364.97 C695.72,373.45 695.59,377.21 699.20,374.85 ZM 750.53 412.38 C749.50,414.40 749.00,415.55 749.00,415.90 C749.00,416.51 748.52,417.00 747.94,417.00 C747.67,417.00 747.48,417.10 747.39,417.26 C747.44,417.07 747.56,416.92 747.74,416.84 C748.05,416.70 749.18,414.87 750.53,412.38 ZM 757.69 399.37 C757.49,399.73 757.29,400.08 757.09,400.43 C754.99,404.11 753.19,407.36 751.83,409.92 C751.88,409.80 751.94,409.69 752.00,409.58 C753.91,405.80 756.46,401.23 757.69,399.37 ZM 747.02 293.12 C747.66,291.71 748.84,289.43 750.18,286.97 C750.46,286.48 750.75,285.95 751.07,285.38 C751.82,284.01 752.60,282.65 753.34,281.39 C751.00,285.39 748.26,290.46 747.02,293.12 ZM 854.11 252.49 C854.02,252.51 853.93,252.54 853.86,252.59 C853.84,252.60 853.83,252.61 853.82,252.63 C853.77,252.66 853.72,252.71 853.67,252.76 C853.67,252.73 853.68,252.71 853.68,252.70 C853.77,252.56 853.92,252.50 854.11,252.49 Z" fill="rgb(163,7,31)"/>
<path d="M 1007.29 559.33 L 1007.30 559.33 C1009.68,553.79 1011.80,548.54 1013.39,544.14 C1018.43,530.13 1022.18,517.19 1024.89,503.98 C1028.69,486.54 1030.20,470.37 1030.69,446.50 C1031.56,404.15 1027.37,376.84 1014.00,337.50 C1000.32,297.26 976.75,259.27 947.95,231.00 C937.16,220.42 930.09,214.00 929.21,214.00 C928.66,214.00 927.99,213.41 927.71,212.68 C927.33,211.69 919.38,206.10 911.07,200.72 C916.85,204.36 918.77,205.16 914.88,202.16 C894.13,186.15 858.75,169.74 830.67,163.11 C808.15,157.78 773.85,155.90 753.50,158.88 C716.64,164.27 688.18,176.15 662.00,197.06 C645.06,210.59 633.59,224.59 622.45,245.35 C619.44,250.95 617.99,252.81 617.37,251.85 C616.89,251.11 613.98,246.01 610.91,240.50 L 605.32 230.50 L 581.91 230.24 C569.03,230.10 557.90,229.77 557.17,229.50 C556.22,229.14 557.61,225.64 562.17,216.94 C565.65,210.31 569.19,204.12 570.03,203.19 C570.86,202.26 572.56,199.78 573.79,197.67 C575.91,194.04 579.43,189.60 588.51,179.12 C594.02,172.76 614.11,153.82 622.00,147.54 C644.23,129.87 670.01,115.47 696.00,106.20 C726.80,95.21 767.83,89.77 802.59,92.06 C859.24,95.78 908.46,112.96 956.50,145.78 C971.07,155.74 979.82,162.97 994.78,177.43 C1014.84,196.82 1028.46,213.64 1045.39,239.95 C1053.69,252.84 1054.00,253.53 1054.00,259.16 C1054.00,260.99 1053.89,262.62 1053.72,263.68 C1053.37,263.24 1052.72,262.68 1051.98,262.22 C1050.92,261.56 1050.44,261.29 1050.43,261.51 C1049.36,260.02 1048.09,258.15 1046.77,256.12 C1037.64,242.13 1025.58,227.51 1011.53,213.42 C999.58,201.43 979.99,184.89 968.98,177.50 C966.52,175.85 962.60,173.07 960.27,171.32 C954.22,166.78 925.86,152.83 917.11,150.09 C907.39,147.04 901.58,146.24 902.18,148.03 C902.42,148.76 909.34,154.00 917.56,159.68 C961.01,189.69 988.76,217.96 1012.43,256.33 C1026.38,278.93 1034.47,297.59 1042.87,326.50 C1055.80,370.96 1057.33,419.04 1047.41,468.50 C1037.12,519.79 1019.07,560.15 984.12,610.00 C983.05,611.52 982.02,612.99 981.04,614.37 C982.93,611.49 983.58,609.95 982.72,610.28 C981.19,610.86 981.24,610.44 983.14,606.72 C983.72,605.58 984.52,604.12 985.32,602.69 C985.93,601.73 986.48,600.82 986.98,600.00 C994.31,587.83 1001.26,573.85 1007.29,559.33 ZM 853.35 328.02 L 853.53 402.50 L 857.21 411.00 C872.62,446.63 873.97,491.18 860.85,531.00 C849.60,565.15 833.03,592.00 807.47,617.51 C766.98,657.91 716.14,683.59 656.00,694.02 C638.13,697.12 600.23,697.89 580.00,695.57 C522.79,689.01 470.67,668.19 427.50,634.65 C420.35,629.09 412.92,622.83 411.00,620.73 C409.08,618.63 403.67,613.23 399.00,608.73 C396.07,605.90 392.34,602.28 389.11,599.12 C417.39,626.32 450.23,647.51 488.08,662.99 C517.49,675.02 560.46,683.17 593.50,682.98 C608.23,682.89 629.85,680.51 643.50,677.48 C650.10,676.01 657.08,674.48 659.00,674.07 C667.19,672.33 696.91,661.15 699.45,658.86 C700.98,657.47 698.04,657.83 686.38,660.43 C666.33,664.91 653.95,666.20 631.00,666.21 C600.37,666.22 578.51,662.99 551.00,654.39 C487.68,634.59 432.73,593.86 392.10,536.60 C381.37,521.48 375.77,511.68 362.32,484.50 C359.81,479.42 357.47,474.42 355.31,469.48 C357.43,474.32 359.72,479.20 362.17,484.15 C367.53,494.96 373.04,505.02 374.42,506.51 C375.80,508.00 378.40,511.53 380.19,514.36 C381.98,517.19 385.48,522.02 387.97,525.10 C390.46,528.19 394.06,532.69 395.98,535.10 C402.72,543.64 427.62,568.32 437.50,576.25 C476.83,607.87 522.28,627.69 573.38,635.48 C583.59,637.04 614.53,636.93 633.79,635.58 C626.61,636.11 617.48,636.53 608.00,636.75 C581.41,637.37 581.18,637.48 599.50,640.71 C607.06,642.04 614.75,642.46 631.00,642.43 C653.98,642.39 662.84,641.35 683.00,636.34 C715.33,628.30 747.59,611.18 771.63,589.30 C786.03,576.20 803.04,554.77 811.37,539.23 L 815.51 531.50 L 833.48 531.23 C843.36,531.08 851.79,530.61 852.21,530.19 C852.63,529.77 853.01,467.24 853.07,391.22 C853.09,357.53 853.19,326.51 853.32,302.38 C853.32,310.40 853.33,319.04 853.35,328.02 ZM 602.30 351.92 C602.38,351.86 602.43,351.79 602.46,351.70 C607.99,360.87 632.48,405.13 639.61,418.99 C641.26,422.19 642.82,425.12 643.84,426.97 C643.63,426.70 643.19,426.60 642.42,426.67 C642.03,426.67 641.56,426.70 641.01,426.79 C640.34,426.88 639.82,427.02 639.44,427.19 C634.37,427.81 624.89,425.31 612.50,420.07 C607.00,417.74 601.94,415.60 601.26,415.31 C600.47,414.98 600.15,421.94 600.05,446.04 C600.05,442.00 600.05,437.86 600.05,433.66 C600.05,382.48 600.17,361.08 600.65,353.52 C600.68,353.50 600.72,353.47 600.75,353.43 C601.16,352.93 601.86,352.25 602.30,351.92 ZM 699.20 374.85 C695.59,377.21 695.72,373.45 699.99,364.97 C703.72,357.56 714.23,345.74 718.24,344.44 C718.95,344.21 720.42,342.45 721.89,340.15 C719.79,343.82 715.14,352.68 711.47,360.00 C709.83,363.26 708.12,366.55 706.60,369.36 C706.60,369.30 706.59,369.26 706.57,369.23 C706.56,369.23 706.55,369.22 706.54,369.22 C706.51,369.08 706.43,369.02 706.29,369.02 C705.89,369.03 703.50,370.99 700.81,373.48 C700.27,373.96 699.73,374.42 699.20,374.85 ZM 786.00 370.40 L 781.47 368.20 C778.98,366.99 776.79,366.00 776.60,366.00 C776.41,366.00 772.59,372.75 768.10,381.00 C766.44,384.04 764.77,387.08 763.25,389.80 L 763.19 389.69 C768.90,379.50 773.91,370.32 776.09,366.00 C777.90,362.42 780.86,357.02 782.68,354.00 L 785.99 348.50 ZM 690.91 382.53 C692.09,382.45 693.03,384.66 693.46,388.60 C693.61,389.92 693.26,391.00 692.70,391.00 C692.51,391.00 692.37,391.03 692.28,391.08 C691.88,390.30 691.41,389.10 690.98,387.75 C690.25,385.41 688.94,382.67 688.07,381.66 C687.92,381.48 687.71,381.19 687.46,380.82 C687.62,381.06 687.76,381.25 687.87,381.38 C687.89,381.40 687.90,381.41 687.91,381.43 C687.95,381.47 687.98,381.51 688.02,381.55 L 688.02 381.55 C689.30,382.98 690.57,383.36 690.91,382.53 ZM 510.45 706.45 C530.23,716.98 551.86,725.78 572.39,731.74 C570.86,731.32 569.38,730.90 567.98,730.48 C548.27,724.61 529.19,716.67 510.45,706.45 ZM 472.65 682.47 C457.37,671.39 442.18,658.65 426.89,644.16 C441.87,658.18 457.60,671.39 472.65,682.47 ZM 643.94 427.15 C644.54,428.21 644.94,428.89 645.05,428.99 C645.35,429.27 651.59,440.30 658.92,453.50 C662.77,460.42 666.37,466.84 669.00,471.48 C668.94,471.37 668.88,471.26 668.81,471.15 C666.20,466.54 662.67,460.26 658.91,453.50 C651.58,440.30 645.22,429.35 644.79,429.17 C644.35,428.98 644.00,428.24 644.00,427.52 C644.00,427.38 643.98,427.25 643.94,427.15 ZM 786.00 449.50 C786.03,509.58 786.34,528.93 787.20,529.80 C786.29,528.89 786.00,509.69 786.00,449.50 ZM 896.72 191.99 C896.64,191.95 896.57,191.91 896.50,191.87 C884.93,185.64 873.12,180.52 860.67,176.38 C873.56,180.65 885.65,185.88 896.72,191.99 ZM 377.09 588.62 C376.88,589.48 380.25,594.33 386.47,601.80 C380.42,594.67 376.76,589.65 377.09,588.62 ZM 725.12 334.46 C727.79,329.60 732.29,321.39 736.45,313.80 C736.80,313.16 737.15,312.52 737.50,311.89 C733.50,319.32 728.84,327.82 725.12,334.46 ZM 692.75 391.86 C693.70,391.98 695.21,390.52 695.77,389.01 C695.26,390.50 693.96,392.00 692.96,392.00 C692.90,392.00 692.83,391.95 692.75,391.86 ZM 750.53 412.38 C750.32,412.77 750.11,413.15 749.91,413.50 C750.63,412.01 751.72,409.93 752.97,407.68 C752.64,408.33 752.31,408.96 752.00,409.58 C751.94,409.69 751.88,409.80 751.83,409.92 C751.82,409.93 751.82,409.94 751.81,409.95 C751.32,410.87 750.89,411.68 750.53,412.38 ZM 907.61 198.51 C904.63,196.62 901.72,194.85 899.24,193.41 C902.11,195.05 904.90,196.75 907.61,198.51 ZM 344.65 441.46 C339.90,426.61 336.68,411.98 334.81,397.00 C336.67,411.96 339.91,426.62 344.65,441.46 ZM 762.71 390.54 L 762.36 391.27 C762.06,391.75 761.70,392.35 761.28,393.09 C761.76,392.23 762.24,391.38 762.71,390.54 ZM 853.99 252.51 C854.44,252.26 855.32,252.68 855.97,253.46 C855.41,252.79 854.64,252.41 854.11,252.49 C854.07,252.50 854.03,252.50 853.99,252.51 ZM 683.74 374.56 C684.52,375.95 685.24,377.21 685.87,378.26 C685.06,376.91 684.11,375.24 683.09,373.41 C683.31,373.80 683.53,374.19 683.74,374.56 ZM 973.95 624.00 C973.57,624.28 972.04,626.30 970.55,628.50 C972.04,626.30 973.56,624.28 973.94,624.00 C973.99,623.96 974.08,623.87 974.21,623.72 C974.08,623.88 973.99,623.97 973.95,624.00 ZM 670.06 473.34 L 669.69 472.68 C671.57,475.98 672.84,478.16 673.19,478.67 C672.87,478.20 671.74,476.27 670.06,473.34 ZM 434.66 434.69 C434.42,434.37 434.03,434.04 433.57,433.78 C434.05,434.05 434.44,434.38 434.66,434.69 ZM 377.16 588.51 C377.16,588.51 377.17,588.50 377.18,588.50 C377.16,588.51 377.15,588.52 377.13,588.54 C377.14,588.53 377.15,588.52 377.16,588.51 Z" fill="rgb(238,121,6)"/>
</g>
</svg>